<?xml version="1.0" encoding="UTF-8"?>
<svg xmlns="http://www.w3.org/2000/svg" xmlns:xlink="http://www.w3.org/1999/xlink" viewBox="0 0 24 24" width="24px" height="24px">
<g id="surface210671024">
<rect x="0" y="0" width="24" height="24" style="fill:rgb(0%,0%,0%);fill-opacity:1;stroke:none;"/>
<path style=" stroke:none;fill-rule:nonzero;fill:rgb(100%,100%,100%);fill-opacity:1;" d="M 16.125 1 C 14.972656 1.066406 13.648438 1.710938 12.859375 2.527344 C 12.148438 3.269531 11.589844 4.375 11.816406 5.445312 C 13.070312 5.476562 14.328125 4.820312 15.082031 3.988281 C 15.785156 3.207031 16.316406 2.121094 16.125 1 Z M 16.195312 5.441406 C 14.382812 5.441406 13.628906 6.554688 12.375 6.554688 C 11.085938 6.554688 9.90625 5.515625 8.347656 5.515625 C 6.226562 5.515625 3 7.480469 3 12.109375 C 3 16.324219 6.816406 21 8.972656 21 C 10.28125 21.011719 10.597656 20.175781 12.375 20.167969 C 14.152344 20.15625 14.535156 21.011719 15.847656 21 C 17.324219 20.988281 18.476562 19.367188 19.316406 18.082031 C 19.921875 17.160156 20.171875 16.691406 20.636719 15.652344 C 17.164062 14.773438 16.476562 9.171875 20.636719 8.011719 C 19.851562 6.671875 17.558594 5.441406 16.191406 5.441406 Z M 16.195312 5.441406 "/>
</g>
</svg>
